<svg width="1440" height="1024" viewBox="0 0 1440 1024" fill="none" xmlns="http://www.w3.org/2000/svg">
<g clip-path="url(#clip0)">
<g clip-path="url(#clip1)">
<path d="M366.458 371.615C366.458 371.615 421.557 374.266 424.876 393.49C428.195 412.714 360.483 395.479 360.483 395.479L366.458 371.615Z" fill="#A0616A"/>
<path d="M279.495 310.63C279.495 310.63 288.789 313.281 296.091 329.19C303.393 345.1 317.997 359.683 317.997 359.683L377.079 370.952L367.122 400.782L310.695 393.49L275.512 373.604L279.495 310.63Z" fill="#575A89"/>
<path opacity="0.1" d="M279.495 310.63C279.495 310.63 288.789 313.281 296.091 329.19C303.393 345.1 317.997 359.683 317.997 359.683L377.079 370.952L367.122 400.782L310.695 393.49L275.512 373.604L279.495 310.63Z" fill="black"/>
<path d="M606.159 250.554H549.446V251.623H606.159V250.554Z" fill="#3F3D56"/>
<path d="M506.643 250.554H329.013V251.623H506.643V250.554Z" fill="#3F3D56"/>
<path d="M658.592 416.149H192.044V615.932H658.592V416.149Z" fill="#3F3D56"/>
<path d="M191.868 280.137L197.843 317.921L239.001 319.91L234.354 264.228L191.868 280.137Z" fill="#A0616A"/>
<path d="M148.387 532.364L146.395 615.887H208.796L218.09 582.743L225.392 615.887H290.448C290.448 615.887 291.776 520.432 284.474 519.769C277.171 519.106 148.387 532.364 148.387 532.364Z" fill="#2F2E41"/>
<path d="M205.145 290.08C224.943 290.08 240.992 274.054 240.992 254.285C240.992 234.515 224.943 218.489 205.145 218.489C185.347 218.489 169.297 234.515 169.297 254.285C169.297 274.054 185.347 290.08 205.145 290.08Z" fill="#A0616A"/>
<path d="M144.735 536.01L163.323 444.532L138.761 323.224L195.329 302.028L223.068 298.698L237.013 296.098L246.967 298.698C246.967 298.698 286.797 308.641 288.788 315.933C290.78 323.224 280.822 382.884 280.822 382.884L271.529 431.937L292.108 520.101C292.108 520.101 206.472 549.268 146.063 536.01H144.735Z" fill="#575A89"/>
<path opacity="0.1" d="M169.629 356.7V381.227L247.957 381.333L173.612 373.272L169.629 356.7Z" fill="black"/>
<path opacity="0.1" d="M162.902 424.437L261.239 410.393L162.902 438.205V424.437Z" fill="black"/>
<path opacity="0.1" d="M318.993 360.014L308.451 397.948L326.295 361.266L318.993 360.014Z" fill="black"/>
<path d="M234.646 218.385L241.238 215.75C241.238 215.75 227.455 200.597 208.278 201.915L213.672 195.986C213.672 195.986 200.488 190.715 188.503 204.55C182.202 211.823 174.912 220.372 170.368 230.002H163.308L166.255 236.48L155.942 242.958L166.527 241.795C165.896 245.342 165.799 248.964 166.24 252.54C166.694 256.117 168.522 259.378 171.338 261.635V261.635C171.338 261.635 179.514 244.738 179.514 242.102V248.69C179.514 248.69 186.106 242.761 186.106 238.808L189.701 243.42L191.499 236.173L213.672 243.42L210.076 237.491L223.859 239.467L218.466 232.22C218.466 232.22 234.047 240.785 234.646 248.032C235.245 255.278 239.806 262.145 239.806 262.145C239.806 262.145 252.025 228.267 234.646 218.385Z" fill="#2F2E41"/>
<path d="M524.783 350.734H269.869V616.55H524.783V350.734Z" fill="#D0CDE1"/>
<path d="M484.953 409.068H296.423V435.583H484.953V409.068Z" fill="#FBF4D0"/>
<path d="M452.304 479.333H328.833V492.591H452.304V479.333Z" fill="#FBF4D0"/>
<path d="M452.542 502.534H329.072V515.792H452.542V502.534Z" fill="#FBF4D0"/>
<path d="M391.045 525.735H329.31V538.993H391.045V525.735Z" fill="#FBF4D0"/>
<path d="M488.272 592.687H459.727V605.944H488.272V592.687Z" fill="#FBF4D0"/>
<path d="M251.614 384.21C251.614 384.21 309.368 375.592 317.998 388.187C326.628 400.782 256.924 407.411 256.924 407.411L251.614 384.21Z" fill="#A0616A"/>
<path d="M145.399 322.562H141.24C139.529 322.557 137.88 323.198 136.622 324.356C132.674 328.017 124.325 337.464 120.837 354.38C116.19 376.918 108.224 420.668 126.148 423.983C144.072 427.297 261.571 411.388 261.571 411.388L252.941 380.895L167.97 381.558C167.97 381.558 169.297 366.975 166.642 357.694C163.987 348.414 145.399 322.562 145.399 322.562Z" fill="#575A89"/>
<path d="M328.478 271.922C340.593 271.922 350.414 262.355 350.414 250.554C350.414 238.754 340.593 229.187 328.478 229.187C316.363 229.187 306.542 238.754 306.542 250.554C306.542 262.355 316.363 271.922 328.478 271.922Z" fill="#D0CDE1"/>
<path d="M428.529 271.922C440.348 271.922 449.93 262.355 449.93 250.554C449.93 238.754 440.348 229.187 428.529 229.187C416.709 229.187 407.127 238.754 407.127 250.554C407.127 262.355 416.709 271.922 428.529 271.922Z" fill="#3F3D56"/>
<path d="M528.045 272.99C523.6 272.99 519.256 271.674 515.56 269.209C511.865 266.744 508.985 263.24 507.284 259.14C505.583 255.041 505.138 250.53 506.005 246.178C506.872 241.825 509.012 237.828 512.155 234.69C515.298 231.553 519.302 229.416 523.661 228.55C528.02 227.684 532.538 228.129 536.644 229.827C540.75 231.525 544.26 234.4 546.729 238.09C549.198 241.779 550.516 246.117 550.516 250.554C550.509 256.503 548.139 262.205 543.927 266.411C539.714 270.617 534.002 272.983 528.045 272.99V272.99ZM528.045 229.187C523.812 229.187 519.674 230.441 516.155 232.788C512.635 235.136 509.892 238.473 508.272 242.378C506.653 246.282 506.229 250.578 507.055 254.723C507.88 258.868 509.919 262.675 512.912 265.663C515.905 268.651 519.718 270.687 523.869 271.511C528.021 272.335 532.324 271.912 536.234 270.295C540.145 268.678 543.487 265.939 545.839 262.425C548.191 258.912 549.446 254.78 549.446 250.554C549.439 244.89 547.183 239.458 543.17 235.453C539.158 231.447 533.719 229.194 528.045 229.187Z" fill="#3F3D56"/>
<path d="M627.56 272.99C623.116 272.99 618.771 271.674 615.076 269.209C611.38 266.744 608.5 263.24 606.799 259.14C605.099 255.041 604.654 250.53 605.521 246.178C606.388 241.825 608.528 237.828 611.671 234.69C614.813 231.553 618.817 229.416 623.176 228.55C627.535 227.684 632.054 228.129 636.16 229.827C640.266 231.525 643.775 234.4 646.245 238.09C648.714 241.779 650.032 246.117 650.032 250.554C650.025 256.503 647.655 262.205 643.443 266.411C639.23 270.617 633.518 272.983 627.56 272.99V272.99ZM627.56 229.187C623.327 229.187 619.19 230.441 615.67 232.788C612.151 235.136 609.408 238.473 607.788 242.378C606.168 246.282 605.744 250.578 606.57 254.723C607.396 258.868 609.434 262.675 612.427 265.663C615.42 268.651 619.234 270.687 623.385 271.511C627.537 272.335 631.84 271.912 635.75 270.295C639.661 268.678 643.003 265.939 645.355 262.425C647.706 258.912 648.962 254.78 648.962 250.554C648.955 244.89 646.698 239.458 642.686 235.453C638.674 231.447 633.234 229.194 627.56 229.187Z" fill="#3F3D56"/>
<path d="M326.686 260.17L317.242 247.593L320.644 245.044L327.146 253.703L357.038 223.846L360.045 226.848L326.686 260.17Z" fill="#3F3D56"/>
<path d="M668.039 615.156H125.951V617H668.039V615.156Z" fill="#3F3D56"/>
</g>
<path d="M1613 380C1442.66 380 1279.3 396.746 1158.85 426.554C1038.4 456.361 970.736 496.789 970.736 538.944V538.944C970.736 551.289 950.919 563.129 915.645 571.858C880.371 580.588 832.529 585.492 782.645 585.492H470.687C397.188 585.492 324.408 589.074 256.504 596.035C188.6 602.996 126.9 613.198 74.9283 626.06C22.9566 638.921 -18.2694 654.19 -46.3963 670.995C-74.5232 687.8 -89 705.811 -89 724V724H1613V380H1613Z" fill="#FBF4D0"/>
<path d="M1698 427.312C1516.35 427.312 1342.14 439.972 1213.7 462.507C1085.25 485.041 1013.09 515.605 1013.09 547.473C1013.09 556.806 991.962 565.757 954.346 572.356C916.73 578.956 865.712 582.663 812.515 582.663H479.846C401.467 582.663 323.855 585.372 251.443 590.634C179.03 595.896 113.234 603.609 57.8119 613.333C2.38963 623.056 -41.5735 634.599 -71.5678 647.304C-101.562 660.008 -117 673.624 -117 687.375L1698 687.375L1698 427.312Z" fill="#3F3D56"/>
<rect y="684" width="1440" height="461" fill="#3F3D56"/>
</g>
<defs>
<clipPath id="clip0">
<rect width="1440" height="1024" fill="white"/>
</clipPath>
<clipPath id="clip1">
<rect x="115" y="195" width="672" height="422" fill="white"/>
</clipPath>
</defs>
</svg>
