<svg width="1440" height="1024" viewBox="0 0 1440 1024" fill="none" xmlns="http://www.w3.org/2000/svg">
<g clip-path="url(#clip0)">
<rect width="1440" height="1024" fill="white"/>
<path d="M1.01895 670.031L0 671.032V1024H1440V404L1422.84 405.487L1.01895 670.031Z" fill="#F2F2F2"/>
<path opacity="0.1" d="M-95.1146 845.794C-33.4608 856.509 -55.7744 879.058 -93.3519 898.325C-105.933 904.776 -120.189 911.659 -114.362 917.391C-107.236 924.402 -71.4826 927.654 -34.1174 928.248C33.9977 929.33 115.047 923.104 176.895 912.038C230.343 902.474 268.27 889.928 322.655 880.593C413.667 864.972 530.524 861.593 630.441 862.378C701.129 862.933 778.474 864.55 848.104 855.165C897.1 848.562 930.584 837.752 948.553 827.369C957.228 822.356 963.427 817.126 980.3 812.539C990.331 809.812 1003.5 807.505 1017 805.413C1140.33 786.307 1297.35 782.853 1417.04 762.711C1497.87 749.108 1548.96 729.668 1570.99 711.314C1593.01 692.961 1589.23 675.364 1582.31 658.279C1577.39 646.137 1569.11 633.36 1526.15 626.392C1480.7 619.02 1403.55 619.976 1334.14 626.165C1264.72 632.355 1202.12 643.078 1147.17 654.556C1078.49 668.9 1015 685.411 930.173 694.719C872.404 701.058 811.362 703.275 751.573 706.413C651.619 711.66 551.799 719.753 452.582 727.995C357.599 735.885 261.941 744.025 171.69 755.367C107.822 763.394 56.8729 773.978 -3.35374 782.883C-42.6118 788.688 -85.5903 792.263 -122.692 798.865C-168.396 806.997 -210.028 818.82 -197.572 828.901C-185.728 838.486 -127.838 840.107 -95.1146 845.794Z" fill="#314152"/>
<path opacity="0.1" d="M-159.713 1110.38C-101.325 1087.86 -127.603 1070.09 -168.213 1058.51C-181.809 1054.63 -197.132 1050.66 -192.533 1043.9C-186.909 1035.64 -152.473 1025.48 -115.939 1017.63C-49.3383 1003.3 31.3718 993.625 94.1909 992.436C148.478 991.409 188.123 996.329 243.284 994.895C335.596 992.495 450.874 973.054 548.725 952.828C617.952 938.519 693.501 921.872 763.626 917.518C812.97 914.454 847.918 918.537 867.564 925.222C877.05 928.45 884.149 932.373 901.592 933.587C911.962 934.308 925.326 934.007 938.981 933.429C1063.66 928.155 1218.36 900.966 1339.67 897.416C1421.61 895.019 1475.51 904.138 1500.68 917.852C1525.86 931.566 1525.58 949.561 1522.11 967.668C1519.65 980.536 1514.02 994.68 1473.24 1009.88C1430.1 1025.96 1354.23 1040.05 1284.95 1047.49C1215.66 1054.94 1152.16 1056.61 1096.03 1056.05C1025.88 1055.36 960.383 1051.52 875.367 1058.91C817.469 1063.94 757.164 1073.66 697.908 1082.22C598.846 1096.54 499.361 1108.04 400.438 1119.27C305.737 1130.03 210.326 1140.67 119.593 1147.12C55.3847 1151.68 3.34989 1151.22 -57.4579 1154.22C-97.0948 1156.17 -139.947 1161.03 -177.624 1161.78C-224.036 1162.7 -267.174 1159.21 -256.919 1146.9C-247.169 1135.19 -190.702 1122.33 -159.713 1110.38Z" fill="#314152"/>
<path opacity="0.1" d="M-65.1965 609.059C-3.20621 623.13 -24.9753 651.392 -62.1076 675.377C-74.54 683.408 -88.6372 691.969 -82.6592 699.256C-75.3491 708.167 -39.4754 712.589 -2.0549 713.669C66.1609 715.639 147.14 708.499 208.776 695.079C262.041 683.483 299.693 667.983 353.9 656.683C444.617 637.773 561.515 634.544 661.559 636.42C732.337 637.747 809.806 640.473 879.275 629.245C928.157 621.345 961.405 607.998 979.131 595.052C987.689 588.802 993.763 582.255 1010.54 576.615C1020.51 573.262 1033.63 570.468 1047.1 567.946C1170.08 544.925 1327.18 541.957 1446.49 517.595C1527.07 501.142 1577.72 477.058 1599.31 454.088C1620.89 431.118 1616.67 408.875 1609.3 387.249C1604.07 371.881 1595.46 355.681 1552.28 346.505C1506.6 336.798 1429.39 337.32 1360.06 344.517C1290.73 351.714 1228.32 364.694 1173.6 378.694C1105.22 396.19 1042.07 416.468 957.387 427.464C899.716 434.953 838.663 437.209 778.889 440.641C678.96 446.378 579.237 455.707 480.12 465.231C385.234 474.348 289.679 483.774 199.616 497.29C135.881 506.856 85.1441 519.763 25.0771 530.469C-14.0769 537.448 -57.0116 541.578 -93.9869 549.582C-139.535 559.442 -180.914 573.995 -168.19 586.83C-156.092 599.033 -98.0983 601.591 -65.1965 609.059Z" fill="#314152"/>
</g>
<defs>
<clipPath id="clip0">
<rect width="1440" height="1024" fill="white"/>
</clipPath>
</defs>
</svg>
