<svg width="720" height="304" viewBox="0 0 720 304" fill="none" xmlns="http://www.w3.org/2000/svg">
<g clip-path="url(#clip0)">
<rect width="720" height="304" fill="white"/>
<g clip-path="url(#clip1)">
<path d="M665.624 303C695.682 303 720.049 299.673 720.049 295.569C720.049 291.466 695.682 288.139 665.624 288.139C635.566 288.139 611.199 291.466 611.199 295.569C611.199 299.673 635.566 303 665.624 303Z" fill="#3F3D56"/>
<path d="M649.061 29.9011C649.061 29.9011 647.523 41.9187 651.477 43.3054C655.431 44.692 654.333 55.3229 654.333 55.3229L642.471 64.7983L631.927 65.7227L629.291 51.3941L630.829 47.6964C630.829 47.6964 636.76 40.3009 632.586 32.6744C628.412 25.0479 649.061 29.9011 649.061 29.9011Z" fill="#FFB9B9"/>
<path opacity="0.1" d="M649.061 29.9011C649.061 29.9011 647.523 41.9187 651.477 43.3054C655.431 44.692 654.333 55.3229 654.333 55.3229L642.471 64.7983L631.927 65.7227L629.291 51.3941L630.829 47.6964C630.829 47.6964 636.76 40.3009 632.586 32.6744C628.412 25.0479 649.061 29.9011 649.061 29.9011Z" fill="black"/>
<path d="M638.077 123.5L624.238 157.704C624.238 157.704 613.475 151.233 607.104 151.926C600.734 152.619 592.826 144.531 592.826 144.531L600.734 104.318L615.452 61.563L635.88 75.1983L638.077 123.5Z" fill="#575A89"/>
<path opacity="0.1" d="M638.077 123.5L624.238 157.704C624.238 157.704 613.475 151.233 607.104 151.926C600.734 152.619 592.826 144.531 592.826 144.531L600.734 104.318L615.452 61.563L635.88 75.1983L638.077 123.5Z" fill="black"/>
<path d="M659.824 268.866V279.959H649.939L651.477 267.017L659.824 268.866Z" fill="#575A89"/>
<path d="M685.525 249.684L692.774 254.306L687.502 267.017L682.01 266.324L676.738 258.466L685.525 249.684Z" fill="#575A89"/>
<path d="M661.801 120.264L674.762 152.388C674.762 152.388 670.149 187.979 670.368 190.983C670.588 193.987 670.808 195.143 669.709 197.685C668.611 200.227 668.172 201.845 668.831 204.849C669.49 207.854 669.709 209.009 669.27 210.165C668.831 211.32 665.755 258.929 664.218 262.164C662.68 265.4 665.096 270.715 663.559 271.177C662.021 271.639 650.598 270.484 649.939 267.711C649.28 264.937 652.136 258.235 650.598 256.155C649.061 254.075 650.818 179.197 648.621 174.112C646.425 169.028 622.262 164.406 622.262 164.406C622.262 164.406 620.065 149.615 621.383 147.304C622.701 144.993 624.458 130.433 624.458 130.433L661.801 120.264Z" fill="#2F2E41"/>
<path d="M649.061 278.11C649.061 278.11 655.212 270.484 660.484 278.11C660.484 278.11 660.923 287.123 664.657 288.972C668.391 290.821 666.634 298.217 661.362 298.448C656.09 298.679 649.281 299.603 649.061 296.599C648.841 293.594 649.94 291.746 647.963 290.821C645.986 289.897 647.963 284.581 647.963 284.581L649.061 278.11Z" fill="#2F2E41"/>
<path d="M649.719 167.641C649.719 167.641 649.5 184.281 647.962 186.592C646.424 188.903 645.546 190.29 646.425 192.832C647.303 195.374 648.621 199.996 647.962 200.92C647.303 201.845 648.621 206.698 648.621 206.698C648.621 206.698 665.535 215.249 673.443 233.044C673.443 233.044 681.571 247.142 683.987 247.373C686.403 247.604 689.259 245.755 687.941 251.071C686.623 256.386 681.571 263.319 677.837 262.626C674.102 261.933 671.247 255.231 671.247 255.231C671.247 255.231 642.031 224.031 638.956 223.107C635.881 222.182 627.094 214.787 625.556 210.165C624.019 205.543 620.724 166.948 622.261 164.406C623.799 161.863 629.51 158.397 629.51 158.397L649.719 167.641Z" fill="#2F2E41"/>
<path d="M687.721 248.76C687.721 248.76 701.341 249.222 701.56 252.689C701.78 256.155 695.849 276.724 696.728 281.577C697.606 286.43 689.918 297.523 684.866 295.212C679.814 292.901 683.767 280.884 683.767 280.884C683.767 280.884 678.715 264.475 679.594 264.244C680.473 264.013 689.259 261.24 688.82 258.466C688.38 255.693 687.721 248.76 687.721 248.76Z" fill="#2F2E41"/>
<path d="M638.847 42.2652C646.368 42.2652 652.466 35.85 652.466 27.9366C652.466 20.0231 646.368 13.6079 638.847 13.6079C631.325 13.6079 625.228 20.0231 625.228 27.9366C625.228 35.85 631.325 42.2652 638.847 42.2652Z" fill="#FFB9B9"/>
<path d="M652.575 50.0074C652.575 50.0074 645.107 58.3273 639.615 56.9406C634.123 55.554 631.268 45.6164 631.268 45.6164L621.383 43.7675C621.383 43.7675 614.354 76.5847 614.354 79.8202C614.354 83.0557 621.383 117.953 621.383 124.193C621.383 130.433 615.672 134.13 624.458 133.899C633.245 133.668 629.071 130.664 641.812 130.433C654.552 130.202 656.529 133.206 659.165 128.353C660.963 125.186 663.182 122.307 665.755 119.802L661.142 102.7L660.483 54.3984C660.483 54.3984 654.851 42.8431 652.285 43.7675C652.285 43.7675 653.673 48.8519 652.575 50.0074Z" fill="#314152"/>
<path d="M649.869 41.7236C649.869 41.7236 661.581 43.0743 664.876 45.6165C668.171 48.1587 677.397 50.0075 677.177 51.8564C676.958 53.7053 666.414 80.0515 666.414 80.0515C666.414 80.0515 661.581 100.851 665.755 105.704C669.928 110.558 685.525 163.481 682.889 167.872C680.253 172.263 671.905 154.468 671.905 154.468C671.905 154.468 660.702 116.335 654.552 109.864C648.401 103.393 647.962 68.4961 647.962 66.8784C647.962 65.2606 649.869 41.7236 649.869 41.7236Z" fill="#575A89"/>
<path d="M632.738 44.404C632.738 44.404 618.307 38.6832 613.255 40.9943C608.202 43.3053 605.127 43.7675 605.127 43.7675L603.37 66.416C603.37 66.416 602.711 99.0022 597 106.86C591.288 114.717 587.554 147.535 588.433 150.77C589.311 154.006 586.895 159.552 590.629 158.166C594.364 156.779 604.688 124.886 604.688 124.886C604.688 124.886 604.688 106.629 610.838 101.544C616.989 96.46 627.094 75.4292 627.533 70.3449C627.972 65.2605 632.146 51.163 632.146 51.163L632.738 44.404Z" fill="#575A89"/>
<path d="M682.23 117.259C682.23 117.259 675.64 130.202 674.761 132.513C673.882 134.824 667.732 150.539 658.945 147.072C650.159 143.606 667.512 126.735 667.512 126.735L671.466 112.637C671.466 112.637 681.79 110.326 682.23 117.259Z" fill="#FFB9B9"/>
<path d="M607.325 43.7676H605.128C605.128 43.7676 602.931 41.9187 600.295 43.0743C597.659 44.2298 591.509 42.612 591.509 43.3054C591.509 43.9987 584.699 41.2254 581.844 42.612C578.988 43.9987 568.664 44.4609 568.664 44.4609C568.664 44.4609 564.49 55.554 567.346 57.634C570.201 59.714 574.375 58.0962 576.352 59.714C578.329 61.3317 582.063 59.4829 583.381 61.5628C584.699 63.6428 589.532 67.3405 590.63 65.0294C591.729 62.7184 589.532 60.6384 594.145 63.1806C598.758 65.7227 606.007 65.7227 606.007 65.7227L607.325 43.7676Z" fill="#575A89"/>
<path d="M640.074 17.3502C638.231 16.9022 636.318 17.3986 634.451 17.7205C632.584 18.0423 630.527 18.1484 628.948 17.0527C627.782 16.2435 627.065 14.9047 626.392 13.617C626.111 13.1571 625.924 12.6409 625.842 12.1011C625.763 11.1487 626.339 10.2798 626.95 9.57262C629.791 6.28785 633.941 4.49002 638.127 3.91894C641.568 3.4495 645.155 3.76387 648.333 5.2301C651.51 6.69632 654.241 9.38139 655.491 12.7869C656.066 14.5299 656.425 16.3437 656.56 18.1834C656.749 19.537 656.773 20.9103 656.632 22.2703C656.464 23.2785 656.212 24.2693 655.879 25.2312L653.81 31.8052C653.661 32.4264 653.383 33.0052 652.996 33.4998C652.797 33.742 652.529 33.9099 652.232 33.9784C651.935 34.0469 651.624 34.0123 651.348 33.8797C651.513 33.1657 651.538 32.4236 651.422 31.6989C651.357 31.3377 651.191 31.0053 650.945 30.7443C650.699 30.4833 650.384 30.3058 650.042 30.2346C649.279 30.1495 648.627 30.7715 647.904 31.0394C647.556 31.148 647.19 31.1795 646.83 31.1322C646.47 31.0848 646.123 30.9595 645.811 30.7642C645.499 30.5689 645.229 30.3077 645.018 29.9972C644.806 29.6867 644.659 29.3336 644.583 28.96C644.469 28.2084 644.661 27.4038 644.39 26.698C644.073 25.8711 643.232 25.4378 642.6 24.8436C642.023 24.2837 641.61 23.5622 641.41 22.7639C641.209 21.9657 641.23 21.1238 641.469 20.3374C641.638 19.7902 642.116 19.5415 642.02 18.913C641.895 18.0885 640.739 17.512 640.074 17.3502Z" fill="#2F2E41"/>
<path d="M575.288 71.7822H445.434V221.622H575.288V71.7822Z" fill="#F2F2F2"/>
<path d="M588.378 57.459H458.523V207.298H588.378V57.459Z" stroke="#3F3D56" stroke-width="2" stroke-miterlimit="10"/>
<path d="M471.089 66.8242V181.407H576.334" stroke="#3F3D56" stroke-width="2" stroke-miterlimit="10"/>
<path d="M500.411 141.193H476.849V180.857H500.411V141.193Z" fill="#575A89"/>
<path d="M534.445 114.2H510.883V180.856H534.445V114.2Z" fill="#3F3D56"/>
<path d="M568.481 82.7998H544.919V180.857H568.481V82.7998Z" fill="#314152"/>
<path d="M476.519 190.395H469.518V197.761H476.519V190.395Z" fill="#314152"/>
<path d="M486.634 190.395H479.633V197.761H486.634V190.395Z" fill="#3F3D56"/>
<path d="M496.747 190.395H489.745V197.761H496.747V190.395Z" fill="#575A89"/>
<path d="M575.288 193.593H548.061V194.755H575.288V193.593Z" fill="#3F3D56"/>
<path d="M575.288 197.078H548.061V198.239H575.288V197.078Z" fill="#3F3D56"/>
<path d="M575.288 200.562H548.061V201.723H575.288V200.562Z" fill="#3F3D56"/>
<path d="M570.933 44.4477C574.939 44.6309 577.915 48.4524 577.482 52.6457C577.089 56.4447 575.641 61.1719 571.08 62.9876C562.952 66.2231 563.392 47.9657 564.929 47.2723C565.954 46.8101 567.565 44.2936 570.933 44.4477Z" fill="#FFB9B9"/>
<path d="M674.761 50.6216L677.177 51.8563C677.177 51.8563 682.449 63.1805 682.668 64.7983C682.888 66.416 686.403 72.4248 685.085 74.0426C683.767 75.6603 681.79 79.8203 683.108 81.438C684.426 83.0558 687.501 89.5268 687.501 91.8378C687.501 94.1489 684.206 100.389 686.403 101.082C688.599 101.775 687.94 110.789 687.501 111.482C687.062 112.175 681.35 123.5 681.35 123.5C681.35 123.5 680.252 110.558 669.488 115.873C669.488 115.873 668.61 109.402 669.488 108.94C670.367 108.478 672.564 105.704 670.807 105.242C669.049 104.78 666.633 99.2333 667.072 98.5399C667.512 97.8466 668.61 96.9222 667.512 96.2288C666.413 95.5355 665.535 91.6067 665.754 90.9134C665.974 90.2201 663.338 86.9846 663.338 86.9846L674.761 50.6216Z" fill="#575A89"/>
</g>
<path d="M406.277 71.9358H177.68V221.832H406.277V71.9358Z" fill="#F2F2F2"/>
<path d="M420.696 57.332H192.099V207.228H420.696V57.332Z" stroke="#3F3D56" stroke-width="2" stroke-miterlimit="10"/>
<path d="M341.509 168.634C348.401 161.39 353.095 152.159 354.997 142.111C356.899 132.062 355.923 121.646 352.192 112.181C348.462 102.715 342.145 94.6246 334.04 88.9324C325.935 83.2403 316.407 80.2022 306.659 80.2021V132.005L341.509 168.634Z" fill="#3F3D56"/>
<path d="M306.66 80.2021C295.705 80.2035 285.064 84.0403 276.415 91.1067C267.766 98.1731 261.603 108.066 258.9 119.224C256.196 130.382 257.106 142.168 261.485 152.722C265.864 163.276 273.464 171.996 283.083 177.505L306.66 132.005V80.2021Z" fill="#314152"/>
<path d="M341.507 168.634L306.657 132.005L283.08 177.505C292.426 182.849 303.166 184.873 313.696 183.275C324.226 181.676 333.982 176.54 341.507 168.634Z" fill="#575A89"/>
<path d="M210.187 176.092H200.749V186.011H210.187V176.092Z" fill="#314152"/>
<path d="M223.817 176.092H214.38V186.011H223.817V176.092Z" fill="#3F3D56"/>
<path d="M237.45 176.092H228.013V186.011H237.45V176.092Z" fill="#575A89"/>
<path d="M402.606 178.297H363.808V179.95H402.606V178.297Z" fill="#3F3D56"/>
<path d="M402.606 183.257H363.808V184.91H402.606V183.257Z" fill="#3F3D56"/>
<path d="M402.606 188.216H363.808V189.869H402.606V188.216Z" fill="#3F3D56"/>
<path d="M131.797 71.6846H1.55176V221.832H131.797V71.6846Z" fill="#F2F2F2"/>
<path d="M144.927 57.332H14.6816V207.479H144.927V57.332Z" stroke="#3F3D56" stroke-width="2" stroke-miterlimit="10"/>
<path d="M28.5332 190.54H21.5107V197.921H28.5332V190.54Z" fill="#314152"/>
<path d="M38.6748 190.54H31.6523V197.921H38.6748V190.54Z" fill="#3F3D56"/>
<path d="M48.8164 190.54H41.7939V197.921H48.8164V190.54Z" fill="#575A89"/>
<path d="M127.599 193.747H100.289V194.911H127.599V193.747Z" fill="#3F3D56"/>
<path d="M127.599 197.238H100.289V198.402H127.599V197.238Z" fill="#3F3D56"/>
<path d="M127.599 200.729H100.289V201.892H127.599V200.729Z" fill="#3F3D56"/>
<path d="M79.8037 83.8289V95.9731C86.6592 95.9731 93.3608 98.1099 99.0609 102.113C104.761 106.116 109.204 111.806 111.827 118.464C114.451 125.121 115.137 132.446 113.8 139.514C112.462 146.581 109.161 153.073 104.313 158.168L112.483 166.755C118.947 159.961 123.348 151.306 125.132 141.883C126.915 132.46 126 122.693 122.502 113.816C119.004 104.94 113.08 97.3533 105.48 92.0156C97.8798 86.6778 88.9444 83.8289 79.8037 83.8289V83.8289Z" fill="#3F3D56"/>
<path d="M112.483 166.756L104.313 158.168C98.3869 164.398 90.5133 168.16 82.1509 168.756C73.7885 169.352 65.504 166.742 58.8321 161.409L51.8389 171.081C60.7363 178.189 71.7827 181.667 82.9326 180.872C94.0825 180.077 104.581 175.062 112.483 166.756Z" fill="#575A89"/>
<path d="M45.1419 132.406C45.1419 122.743 48.7938 113.477 55.2942 106.644C61.7946 99.8116 70.6111 95.9731 79.804 95.9731V83.8289C70.1292 83.8288 60.6983 87.02 52.8407 92.9528C44.983 98.8855 39.0949 107.261 36.0063 116.898C32.9176 126.535 32.7842 136.947 35.6249 146.668C38.4655 156.389 44.1369 164.928 51.8397 171.081L58.833 161.409C54.5749 158.014 51.1229 153.629 48.7476 148.597C46.3722 143.565 45.1381 138.023 45.1419 132.406V132.406Z" fill="#314152"/>
</g>
<defs>
<clipPath id="clip0">
<rect width="720" height="304" fill="white"/>
</clipPath>
<clipPath id="clip1">
<rect x="297.978" y="-26" width="422.072" height="329" fill="white"/>
</clipPath>
</defs>
</svg>
