<svg width="595" height="595" viewBox="0 0 595 595" fill="none" xmlns="http://www.w3.org/2000/svg">
<path opacity="0.1" d="M48.8333 359.848C69.3195 394.949 63.2834 447.276 52.1427 489.366C48.4126 503.459 44.1641 518.378 46.3465 533.31C49.0152 551.57 60.7407 564.637 72.8486 571.391C94.9208 583.702 120.792 579.861 140.205 561.389C156.982 545.427 168.586 519.924 185.677 504.657C214.279 479.106 251.872 487.344 284.208 503.428C307.084 514.806 332.167 529.74 354.183 516.51C369.675 507.201 379.934 485.343 385.2 462.336C387.743 451.229 389.473 439.236 394.688 430.338C397.788 425.049 401.923 421.238 406.179 418.002C445.043 388.454 495.616 402.197 533.249 369.584C558.666 347.558 574.165 306.956 580.326 264.911C586.487 222.866 584.349 179.029 581.219 136.004C578.995 105.429 575.654 72.814 561.405 49.5811C546.333 25.0038 521.445 16.4271 499.332 21.8265C477.22 27.2258 457.545 44.7464 440.383 65.2074C418.934 90.7792 399.273 122.417 372.341 133.307C354 140.724 334.386 137.531 315.225 136.786C283.193 135.54 251.351 141.315 219.713 147.544C189.424 153.507 158.931 159.987 130.352 175.116C110.128 185.822 94.2123 204.651 75.2107 218.034C62.8247 226.758 49.1199 229.467 37.4724 240.458C23.1245 253.997 10.2849 277.193 14.8369 303.766C19.1646 329.031 37.9602 341.218 48.8333 359.848Z" fill="#314152"/>
<path d="M472.38 217.264C491.377 217.264 506.776 201.865 506.776 182.869C506.776 163.873 491.377 148.473 472.38 148.473C453.384 148.473 437.985 163.873 437.985 182.869C437.985 201.865 453.384 217.264 472.38 217.264Z" fill="#FF6584"/>
<path d="M302.657 341.132H301.533V403.525H302.657V341.132Z" fill="#3F3D56"/>
<path d="M302.095 349.956C306.968 349.956 310.918 346.005 310.918 341.132C310.918 336.26 306.968 332.309 302.095 332.309C297.222 332.309 293.272 336.26 293.272 341.132C293.272 346.005 297.222 349.956 302.095 349.956Z" fill="#3F3D56"/>
<path d="M302.095 379.586C302.095 379.586 300.834 352.476 274.995 355.628Z" fill="#3F3D56"/>
<path d="M466.218 200.984H465.094V409.095H466.218V200.984Z" fill="#3F3D56"/>
<path d="M465.656 209.708C470.529 209.708 474.479 205.758 474.479 200.885C474.479 196.012 470.529 192.062 465.656 192.062C460.783 192.062 456.833 196.012 456.833 200.885C456.833 205.758 460.783 209.708 465.656 209.708Z" fill="#3F3D56"/>
<path d="M438.556 360.278C443.429 360.278 447.38 356.328 447.38 351.455C447.38 346.582 443.429 342.632 438.556 342.632C433.684 342.632 429.733 346.582 429.733 351.455C429.733 356.328 433.684 360.278 438.556 360.278Z" fill="#3F3D56"/>
<path d="M465.656 245.954C465.656 245.954 464.396 218.845 438.557 221.996Z" fill="#3F3D56"/>
<path d="M465.656 322.807C465.656 322.807 464.396 295.697 438.557 298.848Z" fill="#3F3D56"/>
<path d="M466.215 406.73L465.097 406.609C465.13 406.305 468.226 375.96 455.517 360.671C453.439 358.127 450.854 356.044 447.926 354.553C444.999 353.063 441.793 352.199 438.513 352.015L438.6 350.894C442.031 351.087 445.384 351.992 448.445 353.552C451.507 355.112 454.21 357.292 456.383 359.954C469.395 375.611 466.249 406.42 466.215 406.73Z" fill="#3F3D56"/>
<path d="M492.76 360.278C497.633 360.278 501.583 356.328 501.583 351.455C501.583 346.582 497.633 342.632 492.76 342.632C487.887 342.632 483.937 346.582 483.937 351.455C483.937 356.328 487.887 360.278 492.76 360.278Z" fill="#3F3D56"/>
<path d="M465.101 406.73C465.068 406.42 461.922 375.611 474.933 359.954C477.106 357.292 479.809 355.112 482.871 353.552C485.933 351.992 489.286 351.087 492.716 350.894L492.803 352.015C489.523 352.199 486.317 353.063 483.389 354.554C480.461 356.044 477.876 358.128 475.798 360.673C463.087 375.968 466.186 406.305 466.219 406.609L465.101 406.73Z" fill="#3F3D56"/>
<path d="M493.297 277.514C498.17 277.514 502.12 273.563 502.12 268.69C502.12 263.818 498.17 259.867 493.297 259.867C488.424 259.867 484.474 263.818 484.474 268.69C484.474 273.563 488.424 277.514 493.297 277.514Z" fill="#3F3D56"/>
<path d="M465.639 321.158C465.606 320.873 462.537 292.434 474.97 277.381C477.205 274.65 479.986 272.416 483.134 270.823C486.283 269.23 489.73 268.313 493.254 268.13L493.341 269.251C489.968 269.424 486.668 270.301 483.654 271.824C480.64 273.347 477.977 275.484 475.837 278.097C463.704 292.785 466.724 320.75 466.756 321.031L465.639 321.158Z" fill="#3F3D56"/>
<path d="M406.972 281.769H405.848V408.802H406.972V281.769Z" fill="#3F3D56"/>
<path d="M406.41 290.592C411.283 290.592 415.233 286.641 415.233 281.769C415.233 276.896 411.283 272.945 406.41 272.945C401.537 272.945 397.587 276.896 397.587 281.769C397.587 286.641 401.537 290.592 406.41 290.592Z" fill="#3F3D56"/>
<path d="M406.41 317.701C406.41 317.701 405.15 290.592 379.31 293.743Z" fill="#3F3D56"/>
<path d="M406.969 406.437L405.851 406.315C405.884 406.016 408.963 376.147 396.368 360.977C394.278 358.419 391.678 356.326 388.733 354.829C385.789 353.332 382.565 352.465 379.267 352.284L379.353 351.163C382.802 351.354 386.174 352.261 389.253 353.828C392.332 355.394 395.05 357.585 397.235 360.261C410.134 375.8 407.002 406.133 406.969 406.437Z" fill="#3F3D56"/>
<path d="M379.31 360.547C384.183 360.547 388.133 356.596 388.133 351.723C388.133 346.851 384.183 342.9 379.31 342.9C374.437 342.9 370.487 346.851 370.487 351.723C370.487 356.596 374.437 360.547 379.31 360.547Z" fill="#3F3D56"/>
<path d="M254.421 314.188H253.297V441.221H254.421V314.188Z" fill="#3F3D56"/>
<path d="M253.859 323.011C258.731 323.011 262.682 319.061 262.682 314.188C262.682 309.315 258.731 305.365 253.859 305.365C248.986 305.365 245.035 309.315 245.035 314.188C245.035 319.061 248.986 323.011 253.859 323.011Z" fill="#3F3D56"/>
<path d="M253.858 350.12C253.858 350.12 252.598 323.011 226.759 326.162Z" fill="#3F3D56"/>
<path d="M254.418 438.857L253.3 438.735C253.332 438.435 256.412 408.566 243.817 393.396C241.727 390.839 239.126 388.745 236.182 387.248C233.237 385.751 230.013 384.884 226.715 384.703L226.802 383.582C230.251 383.773 233.623 384.681 236.702 386.247C239.78 387.814 242.499 390.004 244.684 392.68C257.583 408.219 254.451 438.552 254.418 438.857Z" fill="#3F3D56"/>
<path d="M226.759 392.966C231.632 392.966 235.582 389.015 235.582 384.143C235.582 379.27 231.632 375.319 226.759 375.319C221.886 375.319 217.936 379.27 217.936 384.143C217.936 389.015 221.886 392.966 226.759 392.966Z" fill="#3F3D56"/>
<path d="M173.586 257.128H172.462V384.161H173.586V257.128Z" fill="#3F3D56"/>
<path d="M173.024 265.951C177.897 265.951 181.847 262.001 181.847 257.128C181.847 252.255 177.897 248.305 173.024 248.305C168.151 248.305 164.201 252.255 164.201 257.128C164.201 262.001 168.151 265.951 173.024 265.951Z" fill="#3F3D56"/>
<path d="M173.024 293.061C173.024 293.061 171.764 265.951 145.925 269.102Z" fill="#3F3D56"/>
<path d="M173.583 381.797L172.466 381.675C172.498 381.375 175.578 351.507 162.983 336.336C160.892 333.779 158.292 331.685 155.348 330.188C152.403 328.692 149.179 327.825 145.881 327.643L145.968 326.522C149.417 326.713 152.788 327.621 155.867 329.188C158.946 330.754 161.665 332.945 163.85 335.621C176.748 351.159 173.616 381.492 173.583 381.797Z" fill="#3F3D56"/>
<path d="M145.925 335.906C150.797 335.906 154.748 331.956 154.748 327.083C154.748 322.21 150.797 318.26 145.925 318.26C141.052 318.26 137.101 322.21 137.101 327.083C137.101 331.956 141.052 335.906 145.925 335.906Z" fill="#3F3D56"/>
<path d="M88.7593 268.117H87.9668V378.274H88.7593V268.117Z" fill="#3F3D56"/>
<path d="M88.363 275.25C92.521 275.25 95.8917 271.879 95.8917 267.721C95.8917 263.563 92.521 260.192 88.363 260.192C84.205 260.192 80.8344 263.563 80.8344 267.721C80.8344 271.879 84.205 275.25 88.363 275.25Z" fill="#3F3D56"/>
<path d="M88.7593 299.025C88.7593 299.025 87.6535 275.955 64.9845 278.637Z" fill="#3F3D56"/>
<path d="M89.2387 376.689L88.2601 376.582C88.2885 376.32 90.9849 350.198 79.9575 336.93C78.1274 334.693 75.8507 332.862 73.2728 331.553C70.6948 330.244 67.872 329.486 64.9845 329.327L65.0605 328.347C68.0803 328.514 71.0321 329.308 73.7277 330.678C76.4233 332.048 78.8035 333.964 80.7165 336.304C92.0097 349.894 89.2675 376.423 89.2387 376.689Z" fill="#3F3D56"/>
<path d="M64.5883 336.272C68.7463 336.272 72.1169 332.901 72.1169 328.743C72.1169 324.585 68.7463 321.214 64.5883 321.214C60.4303 321.214 57.0596 324.585 57.0596 328.743C57.0596 332.901 60.4303 336.272 64.5883 336.272Z" fill="#3F3D56"/>
<path d="M492.001 408.117H309.865V409.241H492.001V408.117Z" fill="#3F3D56"/>
<path opacity="0.1" d="M11.4609 420.21C11.4609 420.21 99.8607 397.023 214.346 455.957C328.831 514.89 453.943 409.583 451.528 393.642C449.112 377.701 534.614 393.642 534.614 393.642V536.144H11.4609V420.21Z" fill="#FBF4D0"/>
<path d="M29.0925 536.386C29.0925 536.386 13.1516 507.885 32.957 485.182C52.7624 462.478 75.9493 475.037 75.9493 475.037C75.9493 475.037 104.933 488.563 98.17 520.928C98.17 520.928 94.3055 537.352 82.7121 536.386H29.0925Z" fill="#FBF4D0"/>
<path opacity="0.2" d="M29.0925 536.386C29.0925 536.386 13.1516 507.885 32.957 485.182C52.7624 462.478 75.9493 475.037 75.9493 475.037C75.9493 475.037 104.933 488.563 98.17 520.928C98.17 520.928 94.3055 537.352 82.7121 536.386H29.0925Z" fill="white"/>
<path d="M87.5427 491.461C87.5427 491.461 78.5479 487.229 69.5197 489.587C69.5197 489.587 64.8389 477.936 54.2116 476.004" stroke="#535461" stroke-miterlimit="10"/>
<path d="M201.545 536.386C201.545 536.386 217.486 510.301 177.875 471.656C138.264 433.011 140.679 425.765 144.061 419.969C144.061 419.969 112.179 423.833 118.941 471.656C125.704 519.479 154.688 536.386 154.688 536.386H201.545Z" fill="#FBF4D0"/>
<path d="M179.082 536.386C179.082 536.386 167.247 502.089 149.374 481.317C131.501 460.546 134.882 426.248 144.061 419.969" stroke="#535461" stroke-width="2" stroke-miterlimit="10"/>
<path d="M38.8607 337.555C31.7422 344.779 31.2742 355.86 31.2742 355.86C31.2742 355.86 42.3476 355.23 49.4662 348.006C56.5847 340.782 57.0527 329.7 57.0527 329.7C57.0527 329.7 45.9793 330.331 38.8607 337.555Z" fill="#FC6681"/>
<path d="M204.551 338.8C199.129 330.229 188.442 327.261 188.442 327.261C188.442 327.261 186.546 338.189 191.968 346.76C197.39 355.331 208.077 358.299 208.077 358.299C208.077 358.299 209.973 347.371 204.551 338.8Z" fill="#FFD037"/>
<path d="M256.855 432.528C256.855 432.528 240.914 414.655 235.117 436.876C229.321 459.096 225.939 461.995 214.346 456.198C202.752 450.401 190.676 477.936 219.176 497.741C247.677 517.547 231.736 537.111 231.736 537.111H333.661C333.661 537.111 347.187 497.741 317.72 484.216C288.254 470.69 289.22 460.546 290.186 447.02C291.152 433.494 256.855 432.528 256.855 432.528Z" fill="#FBF4D0"/>
<path d="M243.329 425.731C243.329 425.731 309.508 512.958 286.804 537.111" stroke="#535461" stroke-width="2" stroke-miterlimit="10"/>
<path d="M226.219 457.603C226.219 457.603 241.88 470.931 267.482 464.169C293.084 457.406 286.772 440.056 286.772 440.056" stroke="#535461" stroke-width="2" stroke-miterlimit="10"/>
<path d="M333.395 499.767C333.395 499.767 299.324 483.242 282.196 489.405C237.598 505.45 204.443 462.236 204.443 462.236" stroke="#535461" stroke-width="2" stroke-miterlimit="10"/>
<path d="M234.393 536.386C234.393 536.386 255.164 520.928 229.079 466.825C229.079 466.825 194.299 423.833 229.079 383.256C229.079 383.256 153.239 385.188 154.688 455.715C156.137 526.242 192.608 536.386 192.608 536.386H234.393Z" fill="#FBF4D0"/>
<path d="M214.99 536.386C214.99 536.386 209.757 499.19 195.748 476.487C192.983 471.899 190.995 466.887 189.862 461.653C185.179 441.06 191.855 419.526 206.98 404.788L229.079 383.256" stroke="#535461" stroke-width="2" stroke-miterlimit="10"/>
<path opacity="0.1" d="M234.393 536.386C234.393 536.386 255.164 520.928 229.079 466.825C229.079 466.825 194.299 423.833 229.079 383.256C229.079 383.256 153.239 385.188 154.688 455.715C156.137 526.242 192.608 536.386 192.608 536.386H234.393Z" fill="black"/>
<path d="M420.583 535.96C420.583 535.96 349.504 520.07 439.942 427.084C439.942 427.084 478.927 464.032 464.625 509.963C458.875 528.43 440.377 539.832 421.642 536.178C421.291 536.11 420.938 536.037 420.583 535.96Z" fill="#FBF4D0"/>
<path opacity="0.4" d="M420.582 535.96C419.022 535.611 351.034 518.496 439.942 427.084C439.942 427.084 478.927 464.032 464.625 509.963C458.875 528.43 440.377 539.832 421.642 536.178C421.291 536.11 420.938 536.037 420.582 535.96Z" fill="white"/>
<path d="M421.516 536.489C421.516 536.489 459.059 479.93 439.942 427.084" stroke="#535461" stroke-miterlimit="10"/>
<path d="M126.4 535.96C126.4 535.96 55.3206 520.07 145.759 427.084C145.759 427.084 184.744 464.032 170.442 509.963C164.692 528.43 146.194 539.832 127.459 536.178C127.108 536.11 126.755 536.037 126.4 535.96Z" fill="#FBF4D0"/>
<path opacity="0.4" d="M126.4 535.96C124.839 535.611 56.8513 518.496 145.759 427.084C145.759 427.084 184.744 464.032 170.442 509.963C164.692 528.43 146.194 539.832 127.459 536.178C127.108 536.11 126.755 536.037 126.4 535.96Z" fill="white"/>
<path d="M127.333 536.489C127.333 536.489 164.876 479.93 145.759 427.084" stroke="#535461" stroke-miterlimit="10"/>
<path d="M285.326 535.96C285.326 535.96 214.247 520.07 304.686 427.084C304.686 427.084 343.671 464.032 329.369 509.963C323.619 528.43 305.121 539.832 286.385 536.178C286.035 536.11 285.682 536.037 285.326 535.96Z" fill="#FBF4D0"/>
<path opacity="0.4" d="M285.326 535.96C283.765 535.611 215.778 518.496 304.686 427.084C304.686 427.084 343.671 464.032 329.369 509.963C323.619 528.43 305.121 539.832 286.385 536.178C286.035 536.11 285.682 536.037 285.326 535.96Z" fill="white"/>
<path d="M286.259 536.489C286.259 536.489 323.802 479.93 304.686 427.084" stroke="#535461" stroke-miterlimit="10"/>
<path d="M503.669 535.96C503.669 535.96 432.59 520.07 523.028 427.084C523.028 427.084 562.013 464.032 547.711 509.963C541.961 528.43 523.463 539.832 504.728 536.178C504.377 536.11 504.024 536.037 503.669 535.96Z" fill="#FBF4D0"/>
<path opacity="0.4" d="M503.669 535.96C502.108 535.611 434.121 518.496 523.028 427.084C523.028 427.084 562.014 464.032 547.712 509.963C541.961 528.43 523.463 539.832 504.728 536.178C504.377 536.11 504.024 536.037 503.669 535.96Z" fill="white"/>
<path d="M504.602 536.489C504.602 536.489 542.145 479.93 523.028 427.084" stroke="#535461" stroke-miterlimit="10"/>
<path d="M371.311 535.96C371.311 535.96 300.232 520.07 390.67 427.084C390.67 427.084 429.655 464.032 415.353 509.963C409.603 528.43 391.105 539.832 372.37 536.178C372.019 536.11 371.666 536.037 371.311 535.96Z" fill="#FBF4D0"/>
<path opacity="0.4" d="M371.311 535.96C369.75 535.611 301.762 518.496 390.67 427.084C390.67 427.084 429.655 464.032 415.353 509.963C409.603 528.43 391.105 539.832 372.37 536.178C372.019 536.11 371.666 536.037 371.311 535.96Z" fill="white"/>
<path d="M372.244 536.489C372.244 536.489 409.787 479.93 390.67 427.084" stroke="#535461" stroke-miterlimit="10"/>
<path d="M326.965 495.643C342.582 524.605 375.726 537.037 375.726 537.037C375.726 537.037 383.55 502.514 367.934 473.552C352.317 444.591 319.173 432.158 319.173 432.158C319.173 432.158 311.349 466.682 326.965 495.643Z" fill="#3F3D56"/>
<path d="M337.699 486.115C365.893 503.078 376.752 536.77 376.752 536.77C376.752 536.77 341.898 542.961 313.704 525.998C285.51 509.036 274.651 475.343 274.651 475.343C274.651 475.343 309.505 469.152 337.699 486.115Z" fill="#FBF4D0"/>
<path d="M236.15 495.643C251.766 524.605 284.91 537.037 284.91 537.037C284.91 537.037 292.735 502.514 277.118 473.552C261.502 444.591 228.358 432.158 228.358 432.158C228.358 432.158 220.533 466.682 236.15 495.643Z" fill="#3F3D56"/>
<path d="M246.884 486.115C275.078 503.078 285.936 536.77 285.936 536.77C285.936 536.77 251.083 542.961 222.889 525.998C194.694 509.036 183.836 475.343 183.836 475.343C183.836 475.343 218.689 469.152 246.884 486.115Z" fill="#FBF4D0"/>
<path d="M143.285 397.767C116.269 438.213 122.974 490.108 122.974 490.108C122.974 490.108 173.482 476.429 200.498 435.984C227.514 395.538 220.808 343.643 220.808 343.643C220.808 343.643 170.301 357.322 143.285 397.767Z" fill="#3F3D56"/>
<path d="M163.16 405.191C160.523 453.758 124.034 491.264 124.034 491.264C124.034 491.264 91.821 450.027 94.4583 401.46C97.0957 352.893 133.585 315.387 133.585 315.387C133.585 315.387 165.797 356.624 163.16 405.191Z" fill="#FC6681"/>
<path d="M527.886 460.297C528.903 515.374 496.515 535.206 456.128 535.952C455.19 535.969 454.257 535.976 453.327 535.972C451.455 535.967 449.601 535.915 447.766 535.819C411.268 533.911 382.573 514.218 381.627 462.997C380.649 409.989 447.161 341.844 452.151 336.804C452.155 336.804 452.155 336.804 452.16 336.799C452.349 336.607 452.446 336.511 452.446 336.511C452.446 336.511 526.869 405.224 527.886 460.297Z" fill="#FBF4D0"/>
<path d="M453.311 527.577L479.368 489.712L453.32 531.68L453.327 535.972C451.455 535.967 449.601 535.915 447.766 535.819L449.63 480.667L449.6 480.241L449.648 480.159L449.825 474.947L422.177 433.868L449.834 471.045L449.922 472.148L451.33 430.478L427.525 387.94L451.478 423.157L452.151 336.804L452.154 336.516L452.16 336.799L453.039 404.872L475.445 377.465L453.049 410.736L453.131 448.023L473.867 411.856L453.147 453.505L453.193 474.239L483.324 423.871L453.205 481.472L453.311 527.577Z" fill="#3F3D56"/>
<path d="M414.367 460.297C415.384 515.374 382.996 535.206 342.61 535.952C341.671 535.969 340.738 535.976 339.808 535.972C337.936 535.967 336.082 535.915 334.247 535.819C297.749 533.911 269.054 514.218 268.108 462.997C267.13 409.989 333.642 341.844 338.632 336.804C338.636 336.804 338.636 336.804 338.641 336.799C338.83 336.607 338.927 336.511 338.927 336.511C338.927 336.511 413.35 405.224 414.367 460.297Z" fill="#FBF4D0"/>
<path d="M339.792 527.577L365.849 489.712L339.801 531.68L339.808 535.972C337.936 535.967 336.082 535.915 334.247 535.819L336.111 480.667L336.081 480.241L336.129 480.159L336.306 474.947L308.658 433.868L336.315 471.045L336.403 472.148L337.811 430.478L314.006 387.94L337.959 423.157L338.632 336.804L338.636 336.516L338.641 336.799L339.52 404.872L361.926 377.465L339.53 410.736L339.612 448.023L360.348 411.856L339.628 453.505L339.674 474.239L369.805 423.871L339.686 481.472L339.792 527.577Z" fill="#3F3D56"/>
<path d="M550.106 461.263C551.123 516.34 518.736 536.173 478.349 536.918C477.411 536.935 476.477 536.942 475.548 536.938C473.675 536.933 471.822 536.882 469.986 536.785C433.489 534.877 404.794 515.185 403.848 463.963C402.869 410.955 469.382 342.81 474.372 337.77C474.376 337.77 474.376 337.77 474.38 337.765C474.57 337.573 474.667 337.477 474.667 337.477C474.667 337.477 549.09 406.19 550.106 461.263Z" fill="#3F3D56"/>
<path d="M475.532 528.543L501.588 490.679L475.541 532.646L475.548 536.938C473.675 536.933 471.822 536.882 469.987 536.785L471.851 481.633L471.821 481.207L471.868 481.125L472.046 475.913L444.398 434.834L472.055 472.012L472.143 473.114L473.551 431.445L449.746 388.907L473.699 424.123L474.372 337.77L474.375 337.482L474.38 337.765L475.26 405.838L497.666 378.431L475.27 411.702L475.352 448.989L496.088 412.822L475.368 454.471L475.414 475.205L505.545 424.837L475.426 482.438L475.532 528.543Z" fill="#FC6681"/>
<path d="M146.269 460.297C147.286 515.374 114.898 535.206 74.5118 535.952C73.5737 535.969 72.6399 535.976 71.7104 535.972C69.838 535.967 67.9842 535.915 66.1491 535.819C29.6513 533.911 0.956374 514.218 0.0106934 462.997C-0.967985 409.989 65.5446 341.844 70.5341 336.804C70.5386 336.804 70.5386 336.804 70.543 336.799C70.7325 336.607 70.8296 336.511 70.8296 336.511C70.8296 336.511 145.252 405.224 146.269 460.297Z" fill="#FBF4D0"/>
<path d="M71.6946 527.577L97.7509 489.712L71.703 531.68L71.7104 535.972C69.838 535.967 67.9842 535.915 66.149 535.819L68.0133 480.667L67.983 480.241L68.0309 480.159L68.2086 474.947L40.5601 433.868L68.2173 471.045L68.305 472.148L69.7133 430.478L45.9082 387.94L69.861 423.157L70.5341 336.804L70.5377 336.516L70.543 336.799L71.4227 404.872L93.8287 377.465L71.4321 410.736L71.5144 448.023L92.25 411.856L71.5303 453.505L71.5764 474.239L101.708 423.871L71.5887 481.472L71.6946 527.577Z" fill="#3F3D56"/>
<path d="M443.5 544.35C426.118 541.406 409.402 538.877 393.352 536.763L399.697 524.461C397.557 523.718 388.157 530.763 388.157 530.763L396.484 495.052C385.723 496.35 380.252 532.813 380.252 532.813L368.229 520.485L374.05 534.345C324.925 528.56 282.5 526.415 246.815 526.337L252.246 515.808C250.106 515.065 240.706 522.11 240.706 522.11L249.033 486.399C238.272 487.697 232.801 524.16 232.801 524.16L220.778 511.832L226.943 526.511C197.027 527.11 172.631 529.152 153.801 531.48C159.295 515.077 177.955 499.476 177.955 499.476C163.704 503.714 156.229 510.817 152.323 517.438C151.974 483.593 157.601 449.951 168.947 418.062C168.947 418.062 139.491 482.16 143.25 525.186L143.699 532.826C118.727 536.402 106.173 540.122 106.173 540.122L443.5 544.35Z" fill="#3F3D56"/>
<path d="M500.018 541.452C482.636 538.507 465.92 535.978 449.869 533.865L456.215 521.563C454.075 520.819 444.675 527.865 444.675 527.865L453.002 492.154C442.241 493.451 436.77 529.915 436.77 529.915L424.747 517.587L430.568 531.446C381.443 525.661 339.018 523.516 303.333 523.439L308.764 512.909C306.624 512.166 297.224 519.211 297.224 519.211L305.551 483.5C294.79 484.798 289.319 521.261 289.319 521.261L277.296 508.933L283.461 523.613C253.545 524.212 229.149 526.254 210.319 528.581C215.812 512.178 234.473 496.577 234.473 496.577C220.222 500.816 212.747 507.918 208.841 514.54C208.492 480.694 214.119 447.053 225.465 415.164C225.465 415.164 196.009 479.262 199.768 522.288L200.217 529.928C175.245 533.503 162.691 537.223 162.691 537.223L500.018 541.452Z" fill="#3F3D56"/>
<path d="M564.748 546.283C547.366 543.338 530.65 540.809 514.599 538.696L520.945 526.393C518.805 525.65 509.405 532.695 509.405 532.695L517.732 496.984C506.971 498.282 501.5 534.745 501.5 534.745L489.477 522.417L495.298 536.277C446.173 530.492 403.748 528.347 368.063 528.269L373.494 517.74C371.354 516.997 361.954 524.042 361.954 524.042L370.281 488.331C359.52 489.629 354.049 526.092 354.049 526.092L342.026 513.764L348.191 528.444C318.275 529.042 293.879 531.084 275.049 533.412C280.542 517.009 299.203 501.408 299.203 501.408C284.952 505.646 277.477 512.749 273.571 519.37C273.222 485.525 278.849 451.883 290.195 419.994C290.195 419.994 260.739 484.093 264.498 527.118L264.947 534.758C239.975 538.334 227.421 542.054 227.421 542.054L564.748 546.283Z" fill="#3F3D56"/>
<path d="M350.753 541.452C333.371 538.507 316.655 535.978 300.604 533.865L306.949 521.563C304.81 520.819 295.41 527.865 295.41 527.865L303.737 492.154C292.976 493.451 287.504 529.915 287.504 529.915L275.482 517.587L281.302 531.446C232.178 525.661 189.753 523.516 154.068 523.439L159.499 512.909C157.359 512.166 147.959 519.211 147.959 519.211L156.286 483.5C145.525 484.798 140.054 521.261 140.054 521.261L128.031 508.933L134.196 523.613C104.28 524.212 79.8842 526.254 61.0541 528.581C66.5472 512.178 85.2075 496.577 85.2075 496.577C70.9567 500.816 63.4814 507.918 59.5754 514.54C59.2263 480.694 64.8541 447.053 76.1997 415.164C76.1997 415.164 46.7439 479.262 50.5024 522.288L50.952 529.928C25.9801 533.503 13.4254 537.223 13.4254 537.223L350.753 541.452Z" fill="#3F3D56"/>
</svg>
